<?xml version="1.0" standalone="no"?>
<!DOCTYPE svg PUBLIC "-//W3C//DTD SVG 20010904//EN"
 "http://www.w3.org/TR/2001/REC-SVG-20010904/DTD/svg10.dtd">
<svg version="1.0" xmlns="http://www.w3.org/2000/svg"
 width="260.000000pt" height="260.000000pt" viewBox="0 0 260.000000 260.000000"
 preserveAspectRatio="xMidYMid meet">
<metadata>
Created by potrace 1.11, written by Peter Selinger 2001-2013
</metadata>
<g transform="translate(0.000000,260.000000) scale(0.100000,-0.100000)"
fill="#000000" stroke="none">
<path d="M504 2101 c-65 -30 -96 -78 -102 -161 l-5 -70 -57 0 c-44 0 -59 -4
-64 -16 -8 -20 -8 -228 0 -248 5 -12 21 -16 65 -16 l59 0 0 -275 0 -275 -55 0
c-67 0 -67 0 -63 -160 l3 -115 58 -3 57 -3 0 -72 c0 -116 46 -187 136 -207 51
-12 1497 -12 1548 0 54 12 87 38 114 90 l22 44 0 678 c0 588 -2 684 -15 715
-21 50 -42 72 -90 94 -38 18 -84 19 -805 19 -726 0 -767 -1 -806 -19z m485
-336 l127 -125 54 22 c77 31 213 31 290 0 l54 -22 127 125 c137 136 159 147
213 104 20 -16 26 -29 26 -61 0 -38 -7 -47 -121 -163 l-121 -124 21 -34 c58
-94 64 -247 15 -358 l-27 -60 116 -117 c107 -107 117 -121 117 -154 0 -44 -36
-78 -83 -78 -25 0 -50 19 -148 116 l-117 116 -68 -27 c-110 -44 -263 -33 -354
25 -12 7 -42 -18 -136 -110 -132 -131 -150 -140 -200 -96 -21 18 -28 32 -28
60 0 33 10 47 117 154 l118 118 -27 59 c-49 107 -42 252 17 354 l20 34 -115
116 c-63 64 -120 128 -125 144 -20 52 23 107 83 107 24 0 51 -22 155 -125z
m1112 -304 c29 -29 29 -31 29 -146 0 -115 0 -117 -29 -146 -35 -34 -68 -37
-105 -8 -26 20 -26 22 -26 145 0 131 7 159 43 174 38 15 58 11 88 -19z"/>
<path d="M1240 1458 c-89 -46 -130 -141 -101 -231 39 -117 178 -165 283 -98
130 82 110 275 -34 336 -52 21 -96 19 -148 -7z"/>
</g>
</svg>
